<?xml version="1.0" standalone="no"?>
<!DOCTYPE svg PUBLIC "-//W3C//DTD SVG 20010904//EN"
 "http://www.w3.org/TR/2001/REC-SVG-20010904/DTD/svg10.dtd">
<svg version="1.0" xmlns="http://www.w3.org/2000/svg"
 width="225.000000pt" height="225.000000pt" viewBox="0 0 225.000000 225.000000"
 preserveAspectRatio="xMidYMid meet">
<metadata>
Created by potrace 1.16, written by Peter Selinger 2001-2019
</metadata>
<g transform="translate(0.000000,225.000000) scale(0.100000,-0.100000)"
fill="#000000" stroke="none">
<path d="M1260 2071 c0 -17 -6 -47 -14 -66 -11 -25 -11 -35 -3 -38 7 -3 1 -9
-13 -14 -21 -9 -15 -12 55 -28 154 -33 281 -100 388 -203 51 -50 122 -134 97
-116 -29 20 -98 10 -128 -19 -15 -15 -34 -27 -40 -27 -12 0 -11 -25 4 -73 3
-12 5 -20 3 -17 -2 3 -13 16 -24 29 -13 17 -15 22 -5 17 8 -4 7 -1 -3 6 -11 7
-45 34 -77 59 -68 54 -145 94 -221 114 -84 23 -108 20 -115 -12 -10 -46 -26
-73 -45 -73 -11 0 -16 -5 -13 -13 8 -23 -21 -40 -46 -27 -34 18 -119 109 -106
114 6 3 -2 2 -19 -1 -55 -11 -143 -62 -204 -119 -34 -31 -61 -62 -60 -68 3
-23 -1 -36 -12 -36 -7 0 -8 5 -3 13 5 7 -1 1 -14 -13 -31 -34 -77 -133 -92
-196 -13 -57 -16 -174 -7 -244 l6 -45 -10 38 c-11 37 -22 46 -34 27 -4 -7 -12
-7 -25 0 -10 5 -32 10 -49 10 -18 0 -31 5 -31 13 0 8 -3 8 -8 1 -9 -14 -45
-27 -37 -14 3 6 1 10 -5 10 -6 0 -14 -10 -19 -22 -14 -38 -23 109 -11 196 5
44 25 123 44 177 18 54 29 96 24 93 -4 -3 -11 2 -14 11 -5 13 -8 14 -15 3 -6
-10 -11 -10 -21 0 -6 6 -20 12 -30 12 -10 0 -18 5 -18 10 0 6 -7 10 -16 10
-11 0 -15 6 -11 19 4 17 2 18 -14 8 -24 -15 -62 -102 -91 -207 -32 -122 -32
-357 1 -480 96 -360 359 -623 720 -722 112 -31 372 -31 483 0 355 98 608 342
715 689 25 82 27 100 27 273 0 173 -2 191 -27 274 -50 160 -122 288 -229 401
-138 149 -368 274 -535 292 l-53 6 0 -32z m88 -821 c87 0 132 -4 122 -9 -8 -6
-18 -7 -24 -4 -5 3 -6 2 -3 -4 3 -5 -34 -40 -83 -77 -50 -37 -90 -73 -90 -79
0 -12 70 -237 78 -251 7 -12 -7 -3 -124 80 l-101 71 -54 -33 c-30 -18 -59 -37
-64 -41 -48 -37 -51 -39 -36 -20 11 13 11 20 1 32 -10 13 -15 12 -31 -8 -17
-20 -18 -20 -12 -2 9 25 33 51 33 35 0 -6 5 -8 11 -5 7 5 5 13 -6 25 -16 18
-16 22 0 70 10 29 13 55 9 59 -5 4 -56 41 -113 82 l-103 74 138 5 138 5 38
120 c21 66 41 127 44 135 4 9 26 -44 51 -122 l44 -138 137 0z m374 -172 c2
-20 1 -35 -3 -32 -4 2 -9 -14 -11 -36 -2 -26 1 -41 9 -44 9 -4 13 5 14 27 l1
32 8 -35 c5 -19 6 -38 4 -42 -2 -3 0 -9 6 -13 5 -3 10 1 10 9 0 22 17 20 30
-4 17 -31 50 -26 50 8 0 19 3 23 9 13 7 -11 9 -11 13 0 3 8 5 1 4 -16 0 -16 3
-47 7 -68 5 -25 5 -37 -1 -33 -6 3 -8 -2 -6 -11 8 -32 -87 -182 -166 -263
-150 -153 -363 -250 -550 -250 -102 0 -102 0 -98 96 2 59 0 83 -8 80 -6 -2
-11 5 -10 17 1 17 -7 25 -34 33 -28 9 -15 10 72 6 206 -9 330 37 462 170 111
113 173 246 177 383 1 43 6 33 11 -27z"/>
<path d="M692 2020 c-92 -44 -204 -124 -267 -192 l-55 -60 32 -24 c18 -13 44
-29 58 -36 32 -16 41 -29 34 -48 -3 -8 24 13 59 47 72 70 177 139 259 173 53
22 55 24 38 39 -10 9 -25 39 -35 68 -14 45 -29 63 -53 63 -4 0 -35 -13 -70
-30z"/>
</g>
</svg>
